<?xml version="1.0" encoding="UTF-8"?>
<svg width="32px" height="32px" viewBox="0 0 32 32" version="1.1" xmlns="http://www.w3.org/2000/svg" xmlns:xlink="http://www.w3.org/1999/xlink">
    <!-- Generator: sketchtool 51 (57462) - http://www.bohemiancoding.com/sketch -->
    <title>B4102CD1-A022-4783-AE04-F462855F4E40</title>
    <desc>Created with sketchtool.</desc>
    <defs></defs>
    <g id="Symbols" stroke="none" stroke-width="1" fill="none">
        <g id="Lupa" fill="#212121" stroke="#212121">
            <path d="M29.8469915,29.1500522 L21.68906,20.666001 C23.7698568,18.5791649 25.0589627,15.7022848 25.0589627,12.5294813 C25.0589627,6.17179591 19.8871667,1 13.5294813,1 C7.17179591,1 2,6.17179591 2,12.5294813 C2,18.8871667 7.17179591,24.0589627 13.5294813,24.0589627 C16.3201648,24.0589627 18.8813568,23.061388 20.8776041,21.4060839 L29.0553005,29.910998 C29.162909,30.0235477 29.306753,30.079548 29.451146,30.079548 C29.5884017,30.079548 29.7251085,30.0284889 29.8316189,29.9263706 C30.05013,29.7160948 30.0567183,29.3685633 29.8469915,29.1500522 L29.8469915,29.1500522 Z M13.5294813,22.9609168 C7.77736819,22.9609168 3.09804584,18.2815945 3.09804584,12.5294813 C3.09804584,6.77736819 7.77736819,2.09804584 13.5294813,2.09804584 C19.2815945,2.09804584 23.9609168,6.77736819 23.9609168,12.5294813 C23.9609168,18.2815945 19.2810454,22.9609168 13.5294813,22.9609168 L13.5294813,22.9609168 Z" id="Shape"></path>
        </g>
    </g>
</svg>
