<?xml version="1.0" encoding="UTF-8"?>
<svg width="32px" height="32px" viewBox="0 0 32 32" version="1.1" xmlns="http://www.w3.org/2000/svg" xmlns:xlink="http://www.w3.org/1999/xlink">
    <!-- Generator: sketchtool 51 (57462) - http://www.bohemiancoding.com/sketch -->
    <title>844D3608-2E09-40BC-904A-EA809BFF0C35</title>
    <desc>Created with sketchtool.</desc>
    <defs></defs>
    <g id="Symbols" stroke="none" stroke-width="1" fill="none" fill-rule="evenodd">
        <g id="TW-Copy" fill="#FFFFFF" fill-rule="nonzero">
            <g id="twitter" transform="translate(5.000000, 7.000000)">
                <path d="M21.4308486,2.06183139 C20.6425785,2.41137215 19.7946306,2.64778761 18.9053675,2.75337122 C19.8133209,2.20938612 20.5101071,1.34865021 20.8389902,0.321341407 C19.9894029,0.825322776 19.0480037,1.1909306 18.0469269,1.38799814 C17.244885,0.533820214 16.1021556,0 14.8367918,0 C12.4090247,0 10.4399888,1.96903586 10.4399888,4.39680298 C10.4399888,4.74142524 10.4790088,5.07686633 10.5544257,5.39886353 C6.90031486,5.21556777 3.66034094,3.4652408 1.49161435,0.804337215 C1.11321844,1.45357802 0.896149045,2.20938612 0.896149045,3.01503493 C0.896149045,4.54009502 1.67294271,5.88644993 2.85206893,6.67472007 C2.13167396,6.65209502 1.45325012,6.45437168 0.860735911,6.12417699 C0.860408011,6.14286726 0.860408011,6.16155752 0.860408011,6.17991989 C0.860408011,8.31028225 2.37661481,10.0871691 4.3876218,10.4908132 C4.01906288,10.5918062 3.6298463,10.6452538 3.22948114,10.6452538 C2.94552026,10.6452538 2.67041267,10.6180382 2.40219096,10.5668859 C2.96158733,12.3132781 4.58501723,13.584544 6.50945878,13.620285 C5.00440056,14.7997392 3.10881416,15.5024276 1.04829436,15.5024276 C0.694163018,15.5024276 0.343310666,15.4817699 0,15.4407825 C1.94477131,16.6887676 4.25646204,17.4163763 6.73931626,17.4163763 C14.8266269,17.4163763 19.249334,10.7167359 19.249334,4.90603074 C19.249334,4.71552119 19.2450713,4.52566744 19.2365459,4.33745319 C20.0962981,3.71772333 20.8416134,2.94355286 21.4308486,2.06183139 Z" id="Shape"></path>
            </g>
        </g>
    </g>
</svg>