<?xml version="1.0" encoding="UTF-8"?>
<svg width="176px" height="67px" viewBox="0 0 176 67" version="1.1" xmlns="http://www.w3.org/2000/svg" xmlns:xlink="http://www.w3.org/1999/xlink">
    <!-- Generator: sketchtool 51 (57462) - http://www.bohemiancoding.com/sketch -->
    <title>377B942D-A2E7-4641-8A87-846B613D1334</title>
    <desc>Created with sketchtool.</desc>
    <defs></defs>
    <g id="Symbols" stroke="none" stroke-width="1" fill="none" fill-rule="evenodd">
        <g id="Pik-header" fill="#FFFFFF" fill-rule="nonzero">
            <g id="Group-5">
                <polygon id="Shape" points="0 16.6419355 0 23.7505376 32.6688172 7.15591398 65.3376344 23.7505376 65.3376344 16.6419355 32.6688172 0.035483871"></polygon>
                <polygon id="Shape" points="5.53548387 30.8709677 13.4365591 30.8709677 13.4365591 48.5182796 18.972043 48.5182796 18.972043 25.855914 0 25.855914 0 48.5182796 5.53548387 48.5182796"></polygon>
                <rect id="Rectangle-path" x="0" y="51.6763441" width="65.3376344" height="5.79569892"></rect>
                <polygon id="Shape" points="45.3129032 25.855914 45.3129032 48.5182796 50.8483871 48.5182796 50.8483871 40.8301075 52.5752688 39.044086 59.0215054 48.5182796 65.3376344 48.5182796 56.2892473 35.211828 65.3376344 25.855914 58.2290323 25.855914 50.8483871 34.5494624 50.8483871 25.855914"></polygon>
                <polygon id="Shape" points="21.6096774 25.855914 21.6096774 48.5182796 30.0311828 48.5182796 37.1516129 30.255914 37.1516129 48.5182796 42.6870968 48.5182796 42.6870968 25.855914 34.2537634 25.855914 27.1333333 44.1182796 27.1333333 25.855914"></polygon>
                <rect id="Rectangle-path" x="87.4677419" y="0.035483871" width="1.05268817" height="57.9688172"></rect>
                <rect id="Rectangle-path" x="173.102151" y="29.0258065" width="2.89784946" height="28.4580645"></rect>
                <rect id="Rectangle-path" x="111.715054" y="41.6698925" width="2.89784946" height="15.8139785"></rect>
                <rect id="Rectangle-path" x="137.003226" y="41.6698925" width="2.89784946" height="15.8139785"></rect>
                <polygon id="Shape" points="148.866667 32.183871 145.968817 33.7688172 145.968817 41.6698925 142.278495 41.6698925 142.278495 44.3903226 145.968817 44.3903226 145.968817 57.472043 148.866667 57.472043 148.866667 44.3903226 152.545161 44.3903226 152.545161 41.6698925 148.866667 41.6698925"></polygon>
                <path d="M105.919355,43.5741935 C104.405376,42.072043 102.335484,41.1494624 100.04086,41.1494624 C95.427957,41.1494624 91.7021505,44.8870968 91.7021505,49.488172 C91.7021505,54.1010753 95.4397849,57.8268817 100.04086,57.8268817 C102.335484,57.8268817 104.417204,56.9043011 105.919355,55.4021505 L105.919355,57.483871 L108.817204,57.483871 L108.817204,29.0258065 L105.919355,29.0258065 L105.919355,43.5741935 Z M100.383871,55.1064516 C97.2849462,55.1064516 94.7655914,52.5870968 94.7655914,49.488172 C94.7655914,46.3892473 97.2849462,43.8698925 100.383871,43.8698925 C103.482796,43.8698925 106.002151,46.3892473 106.002151,49.488172 C106.002151,52.5870968 103.482796,55.1064516 100.383871,55.1064516 Z" id="Shape"></path>
                <path d="M167.306452,43.5741935 C165.792473,42.072043 163.722581,41.1494624 161.427957,41.1494624 C156.815054,41.1494624 153.089247,44.8870968 153.089247,49.488172 C153.089247,54.1010753 156.826882,57.8268817 161.427957,57.8268817 C163.722581,57.8268817 165.804301,56.9043011 167.306452,55.4021505 L167.306452,57.483871 L170.204301,57.483871 L170.204301,41.6698925 L167.306452,41.6698925 L167.306452,43.5741935 Z M161.770968,55.1064516 C158.672043,55.1064516 156.152688,52.5870968 156.152688,49.488172 C156.152688,46.3892473 158.672043,43.8698925 161.770968,43.8698925 C164.869892,43.8698925 167.389247,46.3892473 167.389247,49.488172 C167.389247,52.5870968 164.88172,55.1064516 161.770968,55.1064516 Z" id="Shape"></path>
                <path d="M131.207527,43.5741935 C129.693548,42.072043 127.623656,41.1494624 125.329032,41.1494624 C120.716129,41.1494624 116.990323,44.8870968 116.990323,49.488172 C116.990323,54.1010753 120.727957,57.8268817 125.329032,57.8268817 C127.623656,57.8268817 129.705376,56.9043011 131.207527,55.4021505 L131.207527,57.3892473 C131.207527,61.6591398 129.362366,63.7172043 126.026882,63.7172043 C122.573118,63.7172043 120.810753,61.5763441 120.668817,58.5365591 L117.770968,58.5365591 C117.770968,63.1494624 121.189247,66.4376344 126.026882,66.4376344 C130.864516,66.4376344 134.105376,63.0784946 134.105376,57.6494624 L134.105376,41.6698925 L131.207527,41.6698925 L131.207527,43.5741935 Z M125.672043,55.1064516 C122.573118,55.1064516 120.053763,52.5870968 120.053763,49.488172 C120.053763,46.3892473 122.573118,43.8698925 125.672043,43.8698925 C128.770968,43.8698925 131.290323,46.3892473 131.290323,49.488172 C131.302151,52.5870968 128.782796,55.1064516 125.672043,55.1064516 Z" id="Shape"></path>
                <circle id="Oval" cx="113.158065" cy="36.1344086" r="2.10537634"></circle>
                <circle id="Oval" cx="138.458065" cy="36.1344086" r="2.10537634"></circle>
            </g>
        </g>
    </g>
</svg>