<?xml version="1.0" encoding="UTF-8"?>
<svg width="32px" height="32px" viewBox="0 0 32 32" version="1.1" xmlns="http://www.w3.org/2000/svg" xmlns:xlink="http://www.w3.org/1999/xlink">
    <!-- Generator: sketchtool 51 (57462) - http://www.bohemiancoding.com/sketch -->
    <title>64FD0446-98A3-4EE3-B471-0DA1767B943C</title>
    <desc>Created with sketchtool.</desc>
    <defs></defs>
    <g id="Symbols" stroke="none" stroke-width="1" fill="none" fill-rule="evenodd">
        <g id="VK-Copy" fill="#FFFFFF">
            <g id="vk" transform="translate(5.000000, 10.000000)">
                <path d="M10.7759022,12.4181239 L12.0821441,12.4181239 C12.0821441,12.4181239 12.4767164,12.3748099 12.6781559,12.1576469 C12.8635752,11.958284 12.8576418,11.5838854 12.8576418,11.5838854 C12.8576418,11.5838854 12.8321281,9.83115381 13.6455997,9.57305015 C14.4475011,9.3188032 15.4772457,11.2670409 16.5686979,12.0161349 C17.3940362,12.5830729 18.0211985,12.4587678 18.0211985,12.4587678 L20.9395499,12.4181239 C20.9395499,12.4181239 22.4662183,12.3240792 21.7423413,11.1237488 C21.6830072,11.0255508 21.320772,10.2358129 19.5724905,8.61302318 C17.7426245,6.91458239 17.9876747,7.18929962 20.1919393,4.25136789 C21.5343751,2.46214581 22.0710527,1.36980362 21.9034336,0.901953645 C21.743528,0.456353982 20.7562073,0.574132322 20.7562073,0.574132322 L17.4702807,0.594602613 C17.4702807,0.594602613 17.2267139,0.561375474 17.0460413,0.669363675 C16.8695221,0.775275179 16.7558972,1.02210535 16.7558972,1.02210535 C16.7558972,1.02210535 16.2358331,2.40666835 15.5422166,3.58415508 C14.0790358,6.0687737 13.4940008,6.19990223 13.2548841,6.04563338 C12.6986262,5.68606827 12.8374682,4.60114286 12.8374682,3.83039191 C12.8374682,1.42261104 13.20267,0.41867678 12.1263481,0.158793089 C11.7691563,0.0724618626 11.5063059,0.0155010535 10.5928563,0.00630425622 C9.42041298,-0.00585924989 8.42804888,0.00986430678 7.86615424,0.285174884 C7.49234893,0.468220818 7.20398483,0.876143279 7.37961399,0.899580278 C7.59677708,0.928654024 8.0886574,1.03219216 8.3494311,1.38730721 C8.68615255,1.84536705 8.67428571,2.87422166 8.67428571,2.87422166 C8.67428571,2.87422166 8.86771513,5.70861525 8.22245596,6.06076359 C7.77952634,6.30225369 7.17194437,5.80918668 5.86748251,3.55508133 C5.19908302,2.40043826 4.69444585,1.12416013 4.69444585,1.12416013 C4.69444585,1.12416013 4.5971378,0.885636747 4.42358534,0.758068268 C4.21294901,0.603502739 3.9186515,0.554255373 3.9186515,0.554255373 L0.796190476,0.574725664 C0.796190476,0.574725664 0.327450485,0.587779182 0.155381374,0.791592078 C0.00229919933,0.972857986 0.143217868,1.34784998 0.143217868,1.34784998 C0.143217868,1.34784998 2.58778592,7.06707122 5.35572524,9.94922882 C7.89374463,12.5916764 10.7759022,12.4181239 10.7759022,12.4181239 Z" id="Shape"></path>
            </g>
        </g>
    </g>
</svg>